<?xml version="1.0" encoding="utf-8"?>
<!-- Generator: Adobe Illustrator 23.0.3, SVG Export Plug-In . SVG Version: 6.00 Build 0)  -->
<svg version="1.1" id="Layer_1" xmlns="http://www.w3.org/2000/svg" xmlns:xlink="http://www.w3.org/1999/xlink" x="0px" y="0px"
	 viewBox="0 0 754 480" style="enable-background:new 0 0 754 480;" xml:space="preserve">
<style type="text/css">
	.st0{fill:#FFFFFF;}
</style>
<path class="st0" d="M552.16,269.11c-1.05,0-1.75,0.18-2.1,0.52c-5.24,4.9-11.72,9.53-19.4,13.9c-7.7,4.38-17.66,6.56-29.89,6.56
	c-3.7,0-7.39-0.65-11.06-1.94c6.33-14.78,9.85-31.06,9.85-48.14c0-41.03-20.23-77.38-51.24-99.63c7.58-7.87,16.67-11.81,27.27-11.81
	c6.29,0,11.62,1.14,16,3.41c4.37,2.28,8.13,4.72,11.28,7.34c3.15,2.62,5.94,5.07,8.39,7.34c2.44,2.28,4.72,3.41,6.82,3.41
	c1.05,0,3.15-3.15,6.29-9.44c3.15-6.29,6.56-13.37,10.23-21.24c3.67-7.87,6.99-15.29,9.96-22.29c2.97-6.99,4.63-11.36,4.98-13.11
	c-2.8-3.15-6.21-5.15-10.23-6.03c-4.02-0.87-9.01-1.31-14.95-1.31c-9.44,0-19.14,2.36-29.1,7.08c-9.96,4.72-19.58,10.93-28.84,18.62
	c-9.27,7.69-18.09,16.44-26.48,26.22c-1.21,1.41-2.4,2.83-3.57,4.24c-10.14-5.63-21.16-9.87-32.79-12.44
	c-2.85-5.63-6.02-10.94-9.52-15.92c-5.43-7.69-11.54-13.9-18.36-18.62c-6.82-4.72-14.6-7.08-23.34-7.08
	c-3.85,0-10.23,2.02-19.14,6.03c-8.91,4.02-18.09,8.65-27.53,13.9c-9.44,5.24-17.75,10.23-24.91,14.95
	c-7.17,4.72-10.75,7.6-10.75,8.65c0,3.15,1.23,4.72,3.67,4.72c3.49-1.05,6.64-2.62,9.44-4.72c2.79-2.1,5.59-3.15,8.39-3.15
	c9.78,0,19.4,3.06,28.84,9.18c0.86,0.56,1.71,1.15,2.56,1.74c-40.54,20-68.48,61.75-68.48,109.96c0,35.87,15.47,68.17,40.08,90.6
	c-2.31,1.96-4.63,3.86-6.94,5.64c-11.36,8.73-21.58,13.11-30.68,13.11c-5.59,0-9.7-1.66-12.32-4.98c-2.62-3.33-4.46-6.99-5.51-11.01
	c-1.05-4.01-1.74-7.69-2.1-11.01c-0.34-3.32-1.05-4.98-2.1-4.98c-0.7,0-1.57,0.52-2.62,1.57c-2.1,8.05-4.8,16.35-8.13,24.91
	c-3.32,8.56-6.64,16.6-9.96,24.12c-3.32,7.51-6.38,14.07-9.18,19.67c-2.79,5.59-4.89,9.26-6.29,11.01c1.05,0.7,2.71,1.66,4.98,2.88
	c2.28,1.22,5.51,1.84,9.7,1.84c6.29,0,13.46-2.1,21.5-6.29c8.05-4.2,16.52-9.7,25.43-16.52c8.91-6.82,17.91-14.6,27.01-23.34
	c6.18-5.94,12.18-11.88,18.03-17.82c20.16,14.57,44.91,23.16,71.65,23.16c25.51,0,49.21-7.82,68.84-21.2
	c3.39,2.32,6.66,3.77,9.81,4.32c10.14-3.85,20.89-9.78,32.25-17.83c11.36-8.04,21.93-16.08,31.73-24.12
	c3.49-2.79,7.25-5.59,11.28-8.39c4.01-2.79,7.87-5.51,11.54-8.13c3.67-2.62,6.73-5.15,9.18-7.6c2.44-2.44,3.67-4.54,3.67-6.29
	C555.3,270.51,554.25,269.11,552.16,269.11z M493.51,240c0,16.17-3.36,31.61-9.4,45.65c-2.76-1.48-5.51-3.31-8.25-5.53
	c-8.22-6.64-15.65-14.86-22.29-24.65c-6.64-9.78-12.24-20.45-16.78-31.99c-4.55-11.54-7.34-22.37-8.39-32.51
	c2.73-20.18,8.07-35.5,16-45.98C474.05,166.07,493.51,200.69,493.51,240z M432.48,137.55c-5.45,6.79-10.49,13.59-15.1,20.37
	c-2.45-9.44-5.6-18.79-9.44-28.06c-0.35-0.84-0.71-1.67-1.08-2.5C415.87,129.76,424.46,133.2,432.48,137.55z M259.88,240
	c0-47.21,28.06-87.65,68.39-105.99c6.41,5.08,12.44,11.03,18.05,17.89c7.87,9.62,14.76,20.11,20.71,31.47
	c5.94,11.37,10.31,22.29,13.11,32.78c-7,13.64-15.65,28.32-25.96,44.05c-10.32,15.73-21.16,30.15-32.51,43.27
	c-7.57,8.73-15.14,16.47-22.71,23.27C274.99,305.33,259.88,274.32,259.88,240z M377.01,356.51c-25.11,0-48.39-7.94-67.47-21.39
	c1.34-1.38,2.69-2.76,4.01-4.13c5.59-5.24,12.32-11.97,20.19-20.19c7.87-8.21,15.47-16.34,22.81-24.39
	c7.34-8.04,13.9-15.64,19.67-22.81c5.77-7.16,9.7-12.32,11.8-15.47c2.44,7.69,6.2,16.96,11.28,27.79
	c5.06,10.84,10.83,21.24,17.31,31.2c6.47,9.96,13.11,18.62,19.93,25.96c1.44,1.55,2.86,2.96,4.27,4.23
	C422.43,349.43,400.49,356.51,377.01,356.51z"/>
</svg>
